<svg xmlns="http://www.w3.org/2000/svg" height="1024" preserveAspectRatio="none" style="display: block;" version="1.1" viewBox="0 0 2048 2048" width="1024">
<path d="M 0 0 L 2048 0 L 2048 2048 L 0 2048 L 0 0 z" fill="rgb(226,226,226)" transform="translate(0,0)"></path>
<path d="M 592.626 1019.02 C 632.331 1018.71 672.038 1018.62 711.744 1018.74 C 741.199 1018.82 771.082 1017.86 800.202 1022.77 C 908.943 1041.08 1008.1 1127.04 1042.25 1231.86 C 1063.09 1181.37 1080.16 1149.3 1119.19 1110.38 C 1169.34 1059.91 1235.35 1028.27 1306.11 1020.8 C 1331.59 1018.18 1361.15 1018.97 1387.09 1018.97 L 1496.26 1019.03 C 1497.19 1031.91 1497.83 1047.05 1497.75 1059.93 C 1497.15 1146.41 1462.41 1229.15 1401.11 1290.14 C 1350.97 1339.19 1286.21 1370.55 1216.65 1379.48 C 1194.79 1382.25 1177.36 1382.29 1155.49 1382.12 L 1155.28 1330.57 C 1178.68 1330.6 1205.24 1330.31 1228.23 1326.23 C 1275.06 1317.93 1321.76 1293.36 1356.8 1261.54 C 1412.34 1211.1 1441.8 1145.3 1445.74 1070.99 L 1396.5 1071.09 C 1354.37 1070.91 1313.44 1068.08 1272.33 1078.97 C 1226.69 1091.06 1188.89 1113.23 1155.48 1146.34 C 1108.99 1192.33 1080.35 1253.35 1074.67 1318.5 C 1072.66 1339.6 1073.05 1360.63 1073.01 1381.82 L 1013.06 1382.01 L 1013.16 1352.12 C 1013.12 1336.93 1012.5 1324.34 1010.61 1309.08 C 996.076 1191.97 903.764 1089.49 785.311 1072.76 C 764.472 1069.81 741.976 1070.41 720.822 1070.44 L 642.514 1070.67 C 644.731 1142.8 674.848 1207.56 726.617 1257.34 C 768.308 1297.53 822.149 1322.75 879.707 1329.06 C 898.099 1330.96 914.577 1330.46 932.981 1330.11 L 932.899 1381.74 C 922.726 1382.07 912.546 1382.1 902.371 1381.82 C 817.714 1379.9 737.366 1344.1 679.311 1282.46 C 628.315 1228.88 597.621 1159.19 592.526 1085.4 C 590.905 1063.24 591.983 1041.21 592.626 1019.02 z" fill="rgb(0,0,0)" transform="translate(0,0)"></path>
<path d="M 1253.32 523.184 C 1308.81 518.052 1357.94 558.944 1362.96 614.452 C 1367.98 669.96 1326.99 719.003 1271.48 723.915 C 1216.11 728.813 1167.24 687.964 1162.23 632.611 C 1157.22 577.258 1197.97 528.301 1253.32 523.184 z" fill="rgb(0,0,0)" transform="translate(0,0)"></path>
<path d="M 813.986 523.194 C 869.356 517.753 918.639 558.26 924.023 613.636 C 929.406 669.011 888.847 718.252 833.466 723.577 C 778.167 728.894 729.015 688.409 723.64 633.116 C 718.265 577.823 758.699 528.628 813.986 523.194 z" fill="rgb(0,0,0)" transform="translate(0,0)"></path>
<path d="M 662.869 817.784 C 693.019 812.222 721.955 832.204 727.431 862.37 C 732.908 892.536 712.844 921.414 682.663 926.805 C 652.602 932.175 623.865 912.208 618.41 882.163 C 612.955 852.118 632.84 823.324 662.869 817.784 z" fill="rgb(0,0,0)" transform="translate(0,0)"></path>
<path d="M 664.486 835.712 C 684.598 831.067 704.673 843.585 709.352 863.689 C 714.03 883.793 701.546 903.888 681.45 908.601 C 661.306 913.325 641.152 900.804 636.463 880.653 C 631.773 860.501 644.327 840.368 664.486 835.712 z" fill="rgb(226,226,226)" transform="translate(0,0)"></path>
<path d="M 742.843 819.729 C 764.522 819.581 794.13 816.407 811.532 831.676 C 834.408 851.747 834.326 887.198 814.947 909.577 C 794.439 927.811 768.741 924.224 742.736 924.017 L 742.843 819.729 z" fill="rgb(0,0,0)" transform="translate(0,0)"></path>
<path d="M 761.097 835.791 C 773.223 835.517 786.214 835.819 796.572 842.904 C 803.89 847.808 808.852 855.522 810.28 864.215 C 812.542 877.324 807.872 887.872 800.393 898.083 C 788.346 908.985 776.539 907.816 761.132 908.055 L 761.097 835.791 z" fill="rgb(226,226,226)" transform="translate(0,0)"></path>
<path d="M 536.863 819.648 C 551.605 819.579 579.367 816.985 590.736 826.724 C 604.186 838.247 601.359 854.79 591.051 867.759 L 592.317 868.355 C 610 876.834 612.808 892.977 604.487 909.791 C 592.092 929.275 557.738 924.283 536.72 924.107 C 537.193 889.451 536.835 854.356 536.863 819.648 z" fill="rgb(0,0,0)" transform="translate(0,0)"></path>
<path d="M 554.948 879.332 C 570.421 879.053 606.611 878.491 586.057 904.827 C 576.661 910.485 565.78 909.135 554.904 908.993 L 554.948 879.332 z" fill="rgb(226,226,226)" transform="translate(0,0)"></path>
<path d="M 554.99 834.632 C 572.235 834.445 590.945 838.584 578.422 860.668 C 570.208 866.379 564.983 865.357 555.005 865.226 L 554.99 834.632 z" fill="rgb(226,226,226)" transform="translate(0,0)"></path>
<path d="M 1496.01 819.497 C 1521.59 819.207 1554.66 823.294 1546.79 860.672 C 1545 869.138 1539.18 873.973 1531.76 877.975 C 1541.34 886.899 1555.39 911.163 1564.47 923.604 L 1541.47 923.599 L 1535.77 914.938 C 1527.64 902.66 1518.44 882.359 1502.35 883.233 C 1499.26 886.826 1500.58 916.467 1500.59 923.918 L 1482.43 923.998 C 1481.91 889.752 1482.21 853.827 1482.42 819.561 L 1496.01 819.497 z" fill="rgb(0,0,0)" transform="translate(0,0)"></path>
<path d="M 1501.21 835.315 C 1520.69 834.713 1534.86 844.165 1521.8 863.645 C 1495.31 881.343 1501.08 852.243 1501.21 835.315 z" fill="rgb(226,226,226)" transform="translate(0,0)"></path>
<path d="M 1079.43 816.777 C 1081.37 819.32 1100.84 870.387 1104.28 878.697 C 1108.57 860.184 1116.15 837.699 1121.85 819.268 C 1128.52 819.79 1134.73 819.489 1141.41 819.297 C 1132.73 850.334 1119.83 881.089 1111.89 912.48 C 1110.99 916.061 1109.55 924.362 1106.01 925.454 C 1102.87 921.512 1091.95 888.718 1088.9 881.408 C 1085.95 874.338 1083.36 868.236 1079.33 860.51 L 1077.8 860.521 C 1068.73 883.373 1061.23 904.545 1051.36 927.57 C 1047.32 918.54 1043.46 905.149 1040.34 895.434 C 1032.22 870.175 1025.41 844.857 1017.09 819.615 L 1036.38 819.728 C 1041.02 838.52 1047.88 860.104 1052.99 879.373 C 1060.05 861.464 1071.02 833.389 1079.43 816.777 z" fill="rgb(0,0,0)" transform="translate(0,0)"></path>
<path d="M 1316.65 819.032 L 1334.96 819.041 L 1335.06 865.922 C 1347.93 850.399 1362.13 834.61 1375.33 819.149 L 1397.11 819.261 C 1381.55 835.513 1366.83 853.831 1351.29 870.543 C 1361.46 880.93 1369.85 891.172 1379.2 902.326 L 1398.2 923.994 L 1372.58 923.884 C 1359.85 908.132 1345.68 891.321 1334.87 874.407 L 1334.8 924.026 L 1316.68 923.996 C 1315.75 891.35 1316.19 851.804 1316.65 819.032 z" fill="rgb(0,0,0)" transform="translate(0,0)"></path>
<path d="M 1261.41 815.503 C 1266.99 819.185 1303.67 911.835 1308.46 923.773 L 1289.69 923.815 C 1286.44 916.174 1283.07 908.587 1279.57 901.058 L 1259.93 901.068 L 1242.15 901.043 C 1238.38 908.335 1235.07 916.292 1231.77 923.84 L 1211.63 923.895 C 1224.38 899.435 1235.43 872.568 1247 847.483 C 1251.79 837.097 1256.14 825.573 1261.41 815.503 z" fill="rgb(0,0,0)" transform="translate(0,0)"></path>
<path d="M 1260.45 852.737 C 1262.38 854.695 1273.38 882.466 1275.19 886.821 L 1265.25 886.946 L 1247.2 886.891 L 1260.45 852.737 z" fill="rgb(226,226,226)" transform="translate(0,0)"></path>
<path d="M 1149.42 819.3 L 1209.45 819.384 L 1209.49 835.018 L 1167.87 835.039 L 1167.99 862.92 L 1206.67 862.995 L 1206.74 878.391 C 1199.18 878.548 1172.95 877.528 1167.78 879.637 L 1167.28 881.763 L 1167.63 908.379 L 1209.03 908.469 L 1209.27 923.962 L 1149 924.076 L 1149.42 819.3 z" fill="rgb(0,0,0)" transform="translate(0,0)"></path>
<path d="M 1407.23 819.327 C 1427.17 819.264 1447.1 819.323 1467.04 819.505 L 1467.03 834.892 L 1425.1 834.949 L 1425.02 862.777 L 1464.13 862.865 L 1464.3 877.717 C 1453.42 877.674 1436.78 877.204 1426.46 878.115 C 1424.59 880.156 1425.3 881.072 1425.23 884.75 L 1425.28 908.151 L 1467.47 908.094 L 1467.51 923.743 C 1447.78 924.168 1426.86 923.801 1407.05 923.786 L 1407.23 819.327 z" fill="rgb(0,0,0)" transform="translate(0,0)"></path>
<path d="M 828.078 819.386 C 834.778 819.252 842.206 819.463 848.968 819.508 C 857.004 835.161 865.208 850.726 873.58 866.201 C 881.929 851.562 890.249 834.848 898.114 819.8 L 919.902 819.436 C 911.78 831.29 904.895 843.956 897.816 856.466 C 893.479 864.46 886.972 874.319 882.069 882.223 C 881.779 895.446 882.363 910.538 882.595 923.899 L 863.542 923.913 L 863.75 881.773 C 854.801 867.986 834.936 833.846 828.078 819.386 z" fill="rgb(0,0,0)" transform="translate(0,0)"></path>
<path d="M 952.337 819.5 C 973.37 819.727 994.404 819.738 1015.44 819.535 L 1015.21 835.307 C 1007.43 835.703 998.36 835.458 990.484 835.434 C 990.736 858.122 990.843 880.811 990.804 903.5 L 990.802 923.277 L 972.509 923.357 C 972.323 894.058 972.357 864.758 972.612 835.459 C 964.57 835.325 956.353 835.394 948.294 835.372 C 948.243 830.537 947.537 824.093 949.678 819.983 L 952.337 819.5 z" fill="rgb(0,0,0)" transform="translate(0,0)"></path>
<metadata><recraft-signature>{"signed_by": "recraft", "signature_b64": "2DK2KANLpjmR6n3a5gBd3riQ26eLROLRXsfYECQIJczr+/W5B2WAKC+BFyIRyUS0AM1vJnnk43L6GmqZCbgwDQ==", "signing_algo": "Ed25519", "generation_timestamp": 1769444689, "identifier": "e1ffffe5-76fd-4a93-b38b-db5a72b8affc"}</recraft-signature></metadata></svg>